<?xml version="1.0" encoding="UTF-8" standalone="no"?>
<svg width="81px" height="20px" viewBox="0 0 81 20" version="1.1" xmlns="http://www.w3.org/2000/svg" xmlns:xlink="http://www.w3.org/1999/xlink" xmlns:sketch="http://www.bohemiancoding.com/sketch/ns">
    <!-- Generator: Sketch 3.4.4 (17249) - http://www.bohemiancoding.com/sketch -->
    <title>button</title>
    <desc>Created with Sketch.</desc>
    <defs></defs>
    <g id="Page-1" stroke="none" stroke-width="1" fill="none" fill-rule="evenodd" sketch:type="MSPage">
        <g id="button" sketch:type="MSLayerGroup">
            <g sketch:type="MSShapeGroup">
                <rect id="Rectangle-path" fill="#348C62" x="0.587049505" y="0" width="50.8535644" height="20"></rect>
                <rect id="Rectangle-path" fill="#010101" x="51.4414158" y="0" width="29.3444554" height="20"></rect>
                <path d="M66.1128416,2.6384 C70.188505,2.6384 73.4918614,5.9336 73.4918614,9.9992 C73.4918614,14.064 70.188505,17.3608 66.1128416,17.3608 C62.0379802,17.3608 58.7346238,14.064 58.7346238,9.9992 C58.7338218,5.9336 62.0371782,2.6384 66.1128416,2.6384 L66.1128416,2.6384 Z M66.1128416,1.3176 C64.9387426,1.3176 63.7983267,1.5472 62.7244752,2.0008 C61.6875149,2.4376 60.7572178,3.064 59.9584455,3.8608 C59.1596733,4.6576 58.5325248,5.5856 58.0938416,6.62 C57.6399208,7.6912 57.4089505,8.828 57.4089505,10 C57.4089505,11.172 57.6391188,12.308 58.0938416,13.38 C58.5325248,14.4144 59.1596733,15.3424 59.9584455,16.1392 C60.7572178,16.936 61.6875149,17.5608 62.7244752,17.9984 C63.7983267,18.4512 64.9387426,18.6816 66.1128416,18.6816 C67.2877426,18.6816 68.4273564,18.452 69.5020099,17.9984 C70.5381683,17.5608 71.4684653,16.936 72.2680396,16.1392 C73.0668119,15.3424 73.6939604,14.4144 74.1326436,13.38 C74.5865644,12.308 74.8175347,11.172 74.8175347,10 C74.8175347,8.828 74.5873663,7.6912 74.1326436,6.62 C73.6939604,5.5856 73.0668119,4.6576 72.2680396,3.8608 C71.4684653,3.064 70.5381683,2.4376 69.5020099,2.0008 C68.4265545,1.5472 67.2869406,1.3176 66.1128416,1.3176 L66.1128416,1.3176 L66.1128416,1.3176 Z" id="Shape" fill="#FFFFFF"></path>
                <path d="M65.2531188,14.516 L63.2008515,14.516 L63.2008515,5.4832 L66.2916832,5.4832 C67.4978614,5.4832 68.1506733,5.7904 68.4337723,6.4688 C68.5749208,6.8136 68.6390792,7.3128 68.6390792,8.0288 C68.6390792,9.436 68.3824455,9.9608 67.4978614,10.3824 L69.0232277,14.5152 L65.2531188,14.5152 L65.2531188,14.516 L65.2531188,14.516 Z" id="Shape" fill="#FFFFFF"></path>
                <g id="Group" transform="translate(4.811881, 6.400000)" fill="#FFFFFF">
                    <path d="M3.63938614,0.1576 C4.93779208,0.1656 5.53927723,0.7576 5.53927723,2.052 L5.53927723,3.8832 C5.53125743,5.1624 4.92175248,5.7544 3.64740594,5.7544 L0.575019802,5.7544 L0.575019802,5.1384 C0.859722772,5.1056 1.08187129,5.0896 1.23184158,5.0744 L1.23184158,0.8368 C1.07385149,0.82 0.867742574,0.8048 0.558980198,0.7728 L0.558980198,0.1568 L3.63938614,0.1568 L3.63938614,0.1576 Z M4.68436634,1.98 C4.68436634,1.2608 4.29620792,0.8688 3.5599901,0.8688 L2.09477228,0.8688 L2.09477228,5.0416 L3.5599901,5.0416 C4.28818812,5.0416 4.68436634,4.6584 4.68436634,3.9464 L4.68436634,1.98 L4.68436634,1.98 Z" id="Shape"></path>
                    <path d="M8.43121782,1.5088 C9.57163366,1.5088 10.1097624,2.036 10.1097624,3.124 L10.1097624,4.0592 L7.19616832,4.0592 L7.19616832,4.3464 C7.19616832,4.9544 7.56026733,5.2336 8.13849505,5.2336 L8.47131683,5.2336 C8.85947525,5.2336 9.17625743,5.1384 9.3190099,4.8176 L9.35108911,4.6896 L9.99989109,4.6896 L9.99989109,5.2408 C9.64381188,5.6488 9.04232673,5.8408 8.44805941,5.8408 L8.17859406,5.8408 C6.91948515,5.8408 6.39739604,5.3048 6.39739604,4.0736 L6.39739604,3.2024 C6.39739604,2.0752 7.01492079,1.508 8.17859406,1.508 L8.43121782,1.508 L8.43121782,1.5088 Z M9.37354455,2.964 C9.37354455,2.388 9.00142574,2.1008 8.4159802,2.1008 L8.17859406,2.1008 C7.56908911,2.1008 7.1969703,2.4128 7.1969703,3.02 L7.1969703,3.468 L9.37434653,3.468 L9.37434653,2.964 L9.37354455,2.964 Z" id="Shape"></path>
                    <path d="M15.3122079,2.1968 C15.0828416,2.2288 14.8847525,2.2448 14.6946832,2.2608 L13.2928218,5.7552 L12.4226733,5.7552 L11.0448713,2.2528 C10.8788614,2.2368 10.6968119,2.2208 10.4987228,2.1976 L10.4987228,1.6056 L12.4387129,1.6056 L12.4387129,2.1976 C12.2245842,2.2056 12.0585743,2.2208 11.8925644,2.2296 L12.8974455,5.0352 L12.9054653,5.0352 L14.013802,2.2448 C13.8477921,2.2368 13.6737624,2.2208 13.4756733,2.1968 L13.4756733,1.6048 L15.3130099,1.6048 L15.3130099,2.1968 L15.3122079,2.1968 Z" id="Shape"></path>
                    <path d="M17.9106238,5.8424 C16.604198,5.8424 15.8912376,5.0672 15.8840198,3.796 L15.8840198,2.148 C15.8840198,0.8616 16.5881584,0.0776 17.9106238,0.0776 L18.6075446,0.0776 C19.9059505,0.0776 20.6028713,0.8688 20.6028713,2.148 L20.6028713,3.796 C20.6028713,5.0672 19.8899109,5.8424 18.6075446,5.8424 L17.9106238,5.8424 L17.9106238,5.8424 Z M18.5209307,5.0672 C19.3044653,5.0672 19.7399406,4.6592 19.7399406,3.8352 L19.7399406,2.092 C19.7399406,1.26 19.3124851,0.852 18.5209307,0.852 L17.9587426,0.852 C17.1744059,0.852 16.7477525,1.308 16.7477525,2.092 L16.7477525,3.8352 C16.7477525,4.6592 17.1752079,5.0672 17.9587426,5.0672 L18.5209307,5.0672 L18.5209307,5.0672 Z" id="Shape"></path>
                    <path d="M24.5077129,1.5088 C25.1966139,1.5088 25.5927921,1.94 25.5927921,2.9632 L25.5927921,4.4904 C25.5927921,5.3856 25.1340594,5.8184 24.4451584,5.8184 L24.3104257,5.8184 C23.6455842,5.8184 23.3520594,5.6904 22.7585941,5.3856 L22.7585941,6.5296 C22.9326238,6.5376 23.2574257,6.5528 23.4635347,6.5704 L23.4635347,7.1608 L21.3735743,7.1608 L21.3735743,6.5704 C21.5788812,6.5536 21.7609307,6.5376 21.9357624,6.5296 L21.9357624,2.252 C21.7617327,2.236 21.587703,2.212 21.4056535,2.1968 L21.4056535,1.6048 L22.759396,1.6048 L22.759396,2.1568 C23.2662475,1.8048 23.7257822,1.5088 24.3745842,1.5088 L24.5077129,1.5088 L24.5077129,1.5088 Z M24.7691584,3.196 C24.7691584,2.484 24.6264059,2.2128 24.1275743,2.2128 L24.0008614,2.2128 C23.5573663,2.2128 23.2012871,2.3728 22.7577921,2.7 L22.7577921,4.7784 C23.2566238,5.0984 23.5180693,5.1704 23.9695842,5.1704 L24.1115347,5.1704 C24.6103663,5.1704 24.7691584,4.8832 24.7691584,4.1472 L24.7691584,3.196 L24.7691584,3.196 Z" id="Shape"></path>
                    <path d="M26.3931683,2.588 C26.3931683,1.8528 26.9160594,1.5088 27.9610396,1.5088 L28.1037921,1.5088 C28.5079901,1.5088 29.2522277,1.5888 29.7510594,1.812 L29.7510594,2.772 L29.078198,2.772 L29.0148416,2.236 C28.7301386,2.108 28.389297,2.076 28.064495,2.076 C27.4389505,2.076 27.1382079,2.228 27.1382079,2.604 L27.1382079,2.6592 C27.1382079,3.0832 27.3916337,3.0832 28.5079901,3.2992 C29.5128713,3.4992 29.8537129,3.7312 29.8537129,4.3696 L29.8537129,4.5792 C29.8537129,5.4744 29.3388416,5.8416 28.3259406,5.8416 L28.0171782,5.8416 C27.6057624,5.8416 26.7660891,5.7928 26.3939703,5.3776 L26.3939703,4.4664 L27.0355545,4.4664 L27.0748515,4.9136 C27.2488812,5.1952 27.7557327,5.2496 28.0011386,5.2496 L28.2625842,5.2496 C28.8007129,5.2496 29.078198,5.0824 29.078198,4.6104 L29.078198,4.4976 C29.078198,4.1072 28.8327921,4.0352 27.7717723,3.8344 C26.6634356,3.6264 26.3939703,3.3784 26.3939703,2.7624 L26.3939703,2.588 L26.3931683,2.588 Z" id="Shape"></path>
                    <path d="M33.8371485,1.9888 C34.4225941,1.6448 34.7233366,1.5088 35.3809604,1.5088 L35.5237129,1.5088 C36.2118119,1.5088 36.6721485,1.932 36.6721485,2.8352 L36.6721485,4.3624 C36.6721485,5.3936 36.165297,5.8184 35.3657228,5.8184 L35.2470297,5.8184 C34.4947723,5.8184 33.9325842,5.7776 33.0143168,5.7136 L33.0143168,0.7976 C32.8402871,0.7808 32.6654554,0.7656 32.4834059,0.7416 L32.4834059,0.1576 L33.8371485,0.1576 L33.8371485,1.9888 L33.8371485,1.9888 Z M35.8477129,3.2112 C35.8477129,2.484 35.681703,2.164 35.1908911,2.164 L35.0401188,2.164 C34.5966238,2.164 34.3359802,2.228 33.8371485,2.54 L33.8371485,5.1312 C34.2878614,5.1856 34.5733663,5.1952 34.9847822,5.1952 L35.111495,5.1952 C35.6103267,5.1952 35.8477129,4.9232 35.8477129,4.2112 L35.8477129,3.2112 L35.8477129,3.2112 Z" id="Shape"></path>
                    <path d="M42.0173465,2.1968 C41.7799604,2.2288 41.5818713,2.2448 41.392604,2.2608 L39.6033861,6.4096 C39.809495,6.4096 39.9121485,6.4264 40.0869802,6.4344 L40.0869802,7.0248 L38.0122574,7.0248 L38.0122574,6.4344 C38.2648812,6.4176 38.5744455,6.4096 38.8038119,6.4016 L39.0492178,5.8344 L37.5214455,2.244 C37.3634554,2.236 37.2126832,2.212 37.0226139,2.196 L37.0226139,1.604 L39.042,1.604 L39.042,2.196 C38.8206535,2.2192 38.6297822,2.236 38.3851782,2.244 L39.4702574,4.9776 L39.486297,4.9776 L40.6668119,2.244 C40.5,2.236 40.3420099,2.22 40.1439208,2.196 L40.1439208,1.604 L42.0205545,1.604 L42.0205545,2.1968 L42.0173465,2.1968 Z" id="Shape"></path>
                </g>
            </g>
        </g>
    </g>
</svg>