<?xml version="1.0" encoding="utf-8"?>
<!DOCTYPE svg PUBLIC "-//W3C//DTD SVG 1.1//EN" "http://www.w3.org/Graphics/SVG/1.1/DTD/svg11.dtd">
<svg version="1.1" id="Layer_1" xmlns="http://www.w3.org/2000/svg" xmlns:xlink="http://www.w3.org/1999/xlink" x="0px" y="0px"
	 width="322.331px" height="322.33px" viewBox="0 0 322.331 322.33" enable-background="new 0 0 322.331 322.33"
	 xml:space="preserve">
<polygon fill="#348C62" points="77.782,0 0,0 322.331,322.33 322.331,244.549 "/>
<g>
	<path fill="#fff" d="M102.24,56.311l-1.307-1.307l1.666-2.197l-5.245-5.245l-4.412,4.412l4.299,4.298l-1.762,1.761l-4.298-4.298
		l-3.844,3.844c0.454,0.53,1.476,1.628,1.949,2.215l-1.458,1.458l-5.661-5.662l1.458-1.458c0.587,0.474,1.117,0.929,1.647,1.383
		l10.074-10.074c-0.304-0.341-0.739-0.853-1.421-1.686l1.458-1.458l10.434,10.434L102.24,56.311z"/>
	<path fill="#fff" d="M96.425,70.266c-2.953-2.954-2.935-5.624-0.113-8.445l1.856-1.855c2.858-2.859,5.548-2.935,8.521,0.038
		l0.89,0.89c2.936,2.936,2.821,5.586-0.037,8.445l-1.856,1.855c-2.821,2.822-5.453,2.878-8.351-0.019L96.425,70.266z M98.774,69.66
		c1.478,1.477,2.973,1.534,4.374,0.132l3.011-3.011c1.439-1.439,1.401-2.954-0.075-4.431l-0.929-0.928
		c-1.477-1.477-2.991-1.515-4.431-0.076l-3.011,3.011c-1.401,1.401-1.345,2.897,0.133,4.374L98.774,69.66z"/>
	<path fill="#fff" d="M114.301,71.743c2.196-0.266,3.73-0.132,5.075,1.212l0.832,0.833l-1.817,1.818
		c-0.55-0.512-1.061-0.984-1.515-1.363c-0.984-0.947-2.008-1.401-3.825-1.25l-5.245,5.245c0.397,0.436,0.795,0.909,1.345,1.572
		l-1.383,1.382l-4.771-4.772l1.382-1.382c0.55,0.436,1.023,0.833,1.459,1.231l6.798-6.798c-0.379-0.455-0.739-0.928-1.137-1.401
		l1.401-1.401l3.238,3.238L114.301,71.743z"/>
	<path fill="#fff" d="M120.323,81.703l2.462,2.462l3.995-0.663c-0.322-0.36-0.645-0.758-1.061-1.212l1.401-1.401l4.545,4.545
		l-1.401,1.401c-0.53-0.417-0.985-0.795-1.401-1.174l-5.359,0.738l-1.307,6.229c0.266,0.304,0.568,0.682,1.079,1.344l-1.363,1.364
		l-3.256-3.256l1.382-1.382l1.099-4.886l-2.462-2.462l-2.878,2.878c0.397,0.436,0.795,0.909,1.23,1.458l-1.382,1.382l-4.658-4.658
		l1.382-1.382c0.549,0.435,1.022,0.833,1.458,1.23l10.244-10.244c-0.379-0.455-0.758-0.909-1.136-1.401l1.382-1.382l3.238,3.238
		L120.323,81.703z"/>
	<path fill="#fff" d="M151.68,122.339l-1.382,1.382l-3.428-3.428l6.4-6.4c1.647-1.647,1.799-2.178,0.605-3.371l-0.228-0.228
		c-1.041-1.041-2.479-1.419-4.393-1.666l-5.511,5.51l1.326,1.591l-1.383,1.382l-3.427-3.427l6.4-6.4
		c1.647-1.647,1.799-2.178,0.605-3.371l-0.228-0.228c-1.003-1.003-2.423-1.363-4.26-1.609l-5.567,5.567
		c0.397,0.436,0.795,0.909,1.23,1.458l-1.382,1.382l-4.658-4.658l1.382-1.382c0.549,0.435,1.023,0.833,1.459,1.231l6.798-6.798
		c-0.379-0.455-0.739-0.928-1.137-1.401l1.401-1.401l3.238,3.238l-1.515,1.515c2.177,0.246,4.165,0.682,5.643,2.159l0.227,0.227
		c1.382,1.382,1.61,2.519,0.379,4.166c2.254,0.247,4.411,0.625,6.003,2.216l0.227,0.227c1.629,1.628,1.667,3.105-0.246,5.018
		l-5.908,5.908L151.68,122.339z"/>
	<path fill="#fff" d="M166.317,119.631c2.727,2.727,2.766,5.265,0.19,7.84l-2.216,2.215l-6.969-6.968l-0.682,0.682
		c-1.438,1.439-1.23,2.973,0.152,4.355l0.795,0.795c0.928,0.928,1.912,1.458,3.011,1.042l0.378-0.228l1.553,1.553l-1.307,1.307
		c-1.817,0.114-3.711-0.871-5.131-2.291l-0.645-0.644c-3.011-3.011-2.991-5.529-0.075-8.445l2.064-2.064
		c2.67-2.67,5.491-2.538,8.274,0.246L166.317,119.631z M165.125,125.331c1.364-1.363,1.155-2.936-0.245-4.336l-0.569-0.569
		c-1.457-1.458-3.086-1.609-4.525-0.17l-1.061,1.06l5.208,5.208L165.125,125.331z"/>
	<path fill="#fff" d="M175.482,149.322c-2.954-2.954-2.935-5.624-0.113-8.445l1.855-1.855c2.859-2.859,5.547-2.936,8.521,0.038
		l0.89,0.89c2.936,2.936,2.822,5.586-0.037,8.446l-1.855,1.855c-2.821,2.822-5.454,2.878-8.351-0.019L175.482,149.322z
		 M177.83,148.716c1.477,1.477,2.973,1.534,4.374,0.132l3.011-3.011c1.439-1.439,1.401-2.954-0.075-4.431l-0.928-0.928
		c-1.478-1.478-2.992-1.516-4.432-0.076l-3.011,3.011c-1.401,1.401-1.345,2.897,0.133,4.375L177.83,148.716z"/>
	<path fill="#fff" d="M194.986,165.645l-1.383,1.382l-3.428-3.428l6.4-6.4c1.647-1.647,1.799-2.178,0.606-3.37l-0.228-0.228
		c-1.061-1.061-2.688-1.515-4.582-1.818l-5.511,5.51c0.398,0.436,0.796,0.909,1.231,1.458l-1.383,1.382l-4.658-4.658l1.383-1.382
		c0.549,0.435,1.022,0.833,1.458,1.231l6.798-6.798c-0.379-0.455-0.739-0.929-1.136-1.401l1.401-1.401l3.237,3.237l-1.647,1.647
		c2.196,0.303,4.487,0.739,6.04,2.292l0.208,0.208c1.647,1.647,1.687,3.125-0.227,5.038l-5.908,5.908L194.986,165.645z"/>
	<path fill="#fff" d="M218.882,185.186c-2.708,2.708-6.23,1.306-8.219-0.682l-1.686-1.686c-3.182-3.182-3.313-6.192-0.208-9.297
		l4.07-4.071c3.163-3.162,6.817-3.257,9.923-0.151l0.738,0.738c0.89,0.89,2.954,3.371,4.165,5.604l-3.503,3.503l-1.685-1.685
		l1.779-2.311c-0.682-1.363-2.139-2.859-3.124-3.844c-1.874-1.874-4.223-1.799-6.192,0.17l-4.261,4.261
		c-1.704,1.704-1.514,3.637,0.322,5.473l1.553,1.553c1.458,1.458,3.314,1.686,4.603,0.398l1.287-1.288
		c-0.985-1.062-2.158-2.386-3.768-4.185l1.515-1.515l5.852,5.852L218.882,185.186z"/>
	<path fill="#fff" d="M222.006,192.438c0.397,0.435,0.795,0.908,1.23,1.458l-1.383,1.382l-4.658-4.658l1.383-1.382
		c0.549,0.435,1.023,0.834,1.458,1.231l6.798-6.798c-0.378-0.454-0.738-0.928-1.136-1.401l1.401-1.401l3.238,3.238L222.006,192.438z
		 M230.81,179.276c0.663-0.663,1.592-0.567,2.235,0.076c0.663,0.663,0.758,1.591,0.095,2.254c-0.625,0.625-1.553,0.53-2.216-0.133
		C230.281,180.83,230.185,179.901,230.81,179.276z"/>
	<path fill="#fff" d="M228.653,199.16c0.662,0.662,1.117,1.117,1.855,1.742l-1.136,1.136c-1.155-0.436-2.386-1.212-3.353-2.179
		l-0.208-0.208c-1.477-1.477-1.383-2.973,0.454-4.81l5.927-5.927l-1.25-1.25l1.478-1.477l0.985,0.985
		c0.341,0.341,0.549,0.322,0.852,0.019l2.292-2.291c0.908,0.644,1.344,1.003,1.987,1.609l-2.896,2.897l2.897,2.897l-1.478,1.477
		l-2.897-2.897l-4.999,4.999c-1.515,1.515-1.686,2.102-0.682,3.105L228.653,199.16z"/>
	<path fill="#fff" d="M255.768,205.598c-0.587-0.473-1.174-0.947-1.703-1.438l-10.074,10.074
		c0.473,0.549,0.965,1.117,1.438,1.704l-1.458,1.458l-4.961-4.961l1.458-1.458c0.512,0.398,1.004,0.815,1.459,1.231l4.26-4.261
		l-6.344-6.344l-4.26,4.261c0.396,0.435,0.795,0.909,1.192,1.42l-1.458,1.458l-4.98-4.98l1.458-1.458
		c0.605,0.492,1.193,1.004,1.743,1.478l10.074-10.074c-0.513-0.55-0.986-1.137-1.479-1.743l1.458-1.458l4.98,4.98l-1.458,1.458
		c-0.511-0.397-0.985-0.796-1.42-1.193l-4.128,4.128l6.344,6.344l4.128-4.128c-0.417-0.455-0.833-0.946-1.231-1.458l1.458-1.458
		l4.961,4.961L255.768,205.598z"/>
	<path fill="#fff" d="M256.772,227.166c0.303,0.34,0.7,0.813,1.269,1.496l-1.382,1.382l-3.352-3.352l1.723-1.723
		c-2.064-0.398-4.355-0.871-5.908-2.424l-0.209-0.209c-1.779-1.779-1.817-2.992,0.228-5.037l5.662-5.662l-1.325-1.591l1.401-1.401
		l3.428,3.428l-6.173,6.173c-1.647,1.647-1.799,2.178-0.606,3.37l0.228,0.228c1.061,1.061,2.708,1.534,4.582,1.818l5.245-5.245
		l-1.325-1.591l1.401-1.401l3.428,3.428L256.772,227.166z"/>
	<path fill="#fff" d="M269.212,224.798c2.216,0.587,3.257,0.985,4.828,2.556l0.341,0.341c1.647,1.647,1.743,3.75-0.396,5.89
		l-3.617,3.617c-2.442,2.442-4.658,2.234-6.571,0.321l-0.283-0.283c-1.799-1.799-3.049-3.238-5.094-5.586l11.646-11.646
		c-0.379-0.455-0.758-0.91-1.136-1.401l1.382-1.382l3.237,3.237L269.212,224.798z M271.125,232.505
		c1.724-1.723,2.083-2.878,0.909-4.052l-0.36-0.36c-1.061-1.061-1.837-1.534-3.768-1.988l-6.135,6.135
		c0.946,1.211,1.609,1.912,2.595,2.897l0.303,0.303c1.192,1.192,2.404,1.117,4.09-0.568L271.125,232.505z"/>
</g>
</svg>
