<?xml version="1.0" encoding="utf-8"?>
<!-- Generator: Adobe Illustrator 16.0.0, SVG Export Plug-In . SVG Version: 6.00 Build 0)  -->
<!DOCTYPE svg PUBLIC "-//W3C//DTD SVG 1.1//EN" "http://www.w3.org/Graphics/SVG/1.1/DTD/svg11.dtd">
<svg version="1.1" id="Layer_1" xmlns="http://www.w3.org/2000/svg" xmlns:xlink="http://www.w3.org/1999/xlink" x="0px" y="0px"
	 width="340.157px" height="340.157px" viewBox="0 0 340.157 340.157" enable-background="new 0 0 340.157 340.157"
	 xml:space="preserve">
<g>
	<path fill="#010101" d="M169.163,32.611c76.318,0,138.181,61.865,138.181,138.18c0,76.312-61.862,138.183-138.181,138.183
		s-138.18-61.87-138.18-138.183C30.983,94.476,92.845,32.611,169.163,32.611 M169.163,7.798c-21.994,0-43.343,4.313-63.453,12.819
		c-19.413,8.21-36.841,19.96-51.801,34.921c-14.961,14.96-26.709,32.389-34.919,51.802c-8.506,20.11-12.818,41.458-12.818,63.451
		c0,21.992,4.312,43.34,12.818,63.45c8.21,19.412,19.958,36.841,34.919,51.802c14.96,14.962,32.389,26.712,51.801,34.923
		c20.111,8.507,41.46,12.819,63.454,12.819c21.994,0,43.342-4.312,63.453-12.819c19.413-8.211,36.841-19.961,51.802-34.923
		c14.96-14.961,26.71-32.39,34.92-51.802c8.505-20.11,12.817-41.458,12.817-63.45c0-21.993-4.312-43.341-12.817-63.451
		c-8.21-19.413-19.96-36.841-34.92-51.802c-14.961-14.961-32.39-26.71-51.802-34.921C212.505,12.111,191.157,7.798,169.163,7.798
		L169.163,7.798z"/>
	<path fill="#010101" d="M153.074,255.568h-38.431V86.011h57.879c22.583,0,34.82,5.764,40.111,18.495
		c2.641,6.483,3.844,15.853,3.844,29.301c0,26.416-4.806,36.264-21.372,44.187l28.577,77.575H153.074z"/>
</g>
</svg>
