<?xml version="1.0" encoding="utf-8"?>
<!DOCTYPE svg PUBLIC "-//W3C//DTD SVG 1.1//EN" "http://www.w3.org/Graphics/SVG/1.1/DTD/svg11.dtd">
<svg version="1.1" id="Layer_1" xmlns="http://www.w3.org/2000/svg" xmlns:xlink="http://www.w3.org/1999/xlink" x="0px" y="0px"
	 width="100px" height="25px" viewBox="14.732 0 100 25" enable-background="new 14.732 0 100 25" xml:space="preserve">
	<rect x="14.732" fill="#348C62" width="63.41" height="25"/>
	<rect x="78.143" y="0" fill="#010101" width="36.59" height="25"/>
	<path fill="#FFFFFF" d="M96.437,3.298c5.082,0,9.201,4.119,9.201,9.201c0,5.081-4.119,9.202-9.201,9.202
		c-5.081,0-9.2-4.121-9.2-9.202C87.236,7.417,91.355,3.298,96.437,3.298 M96.437,1.647c-1.464,0-2.886,0.287-4.225,0.854
		c-1.293,0.546-2.453,1.329-3.449,2.325s-1.778,2.156-2.325,3.449c-0.566,1.339-0.854,2.76-0.854,4.225
		c0,1.465,0.287,2.885,0.854,4.225c0.547,1.293,1.329,2.453,2.325,3.449s2.156,1.777,3.449,2.324
		c1.339,0.566,2.761,0.854,4.225,0.854c1.465,0,2.886-0.287,4.226-0.854c1.292-0.547,2.452-1.328,3.449-2.324
		c0.996-0.996,1.778-2.156,2.325-3.449c0.566-1.34,0.854-2.76,0.854-4.225c0-1.465-0.287-2.886-0.854-4.225
		c-0.547-1.293-1.329-2.453-2.325-3.449c-0.997-0.996-2.157-1.779-3.449-2.325C99.322,1.934,97.901,1.647,96.437,1.647L96.437,1.647
		z"/>
	<path fill="#FFFFFF" d="M95.365,18.145h-2.559V6.854h3.854c1.504,0,2.318,0.384,2.671,1.232c0.176,0.431,0.256,1.055,0.256,1.95
		c0,1.759-0.32,2.415-1.423,2.942l1.902,5.166H95.365L95.365,18.145z"/>
	<g>
		<path fill="#FFFFFF" d="M24.538,8.197c1.619,0.01,2.369,0.75,2.369,2.368v2.289c-0.01,1.599-0.77,2.339-2.359,2.339h-3.831v-0.77
			c0.355-0.041,0.632-0.061,0.819-0.08V9.046c-0.197-0.021-0.454-0.04-0.839-0.08v-0.77H24.538z M25.841,10.475
			c0-0.899-0.484-1.389-1.402-1.389h-1.827v5.216h1.827c0.908,0,1.402-0.479,1.402-1.369V10.475z"/>
		<path fill="#FFFFFF" d="M30.513,9.886c1.422,0,2.093,0.659,2.093,2.019v1.169h-3.633v0.359c0,0.76,0.454,1.109,1.175,1.109h0.415
			c0.484,0,0.879-0.119,1.057-0.52l0.04-0.16h0.809v0.689c-0.444,0.51-1.194,0.75-1.935,0.75h-0.336c-1.57,0-2.221-0.67-2.221-2.209
			v-1.089c0-1.409,0.77-2.118,2.221-2.118H30.513z M31.688,11.705c0-0.72-0.464-1.079-1.194-1.079h-0.296
			c-0.76,0-1.224,0.39-1.224,1.149v0.56h2.715V11.705z"/>
		<path fill="#FFFFFF" d="M39.093,10.746c-0.286,0.04-0.533,0.06-0.77,0.08l-1.748,4.368H35.49l-1.718-4.378
			c-0.207-0.02-0.434-0.04-0.681-0.069v-0.74h2.419v0.74c-0.267,0.01-0.474,0.029-0.681,0.04l1.253,3.507h0.01l1.382-3.488
			c-0.207-0.01-0.424-0.03-0.671-0.06v-0.74h2.291V10.746z"/>
		<path fill="#FFFFFF" d="M42.333,15.303c-1.629,0-2.518-0.969-2.527-2.558v-2.06c0-1.608,0.878-2.588,2.527-2.588h0.869
			c1.619,0,2.488,0.989,2.488,2.588v2.06c0,1.589-0.889,2.558-2.488,2.558H42.333z M43.094,14.334c0.977,0,1.52-0.51,1.52-1.54
			v-2.179c0-1.04-0.533-1.55-1.52-1.55h-0.701c-0.978,0-1.51,0.57-1.51,1.55v2.179c0,1.03,0.533,1.54,1.51,1.54H43.094z"/>
		<path fill="#FFFFFF" d="M50.559,9.886c0.859,0,1.353,0.539,1.353,1.818v1.909c0,1.119-0.572,1.66-1.431,1.66h-0.168
			c-0.829,0-1.195-0.16-1.935-0.541v1.43c0.217,0.01,0.622,0.029,0.879,0.051v0.738h-2.606v-0.738
			c0.256-0.021,0.483-0.041,0.701-0.051v-5.347c-0.217-0.02-0.434-0.05-0.661-0.069v-0.74h1.688v0.69
			c0.632-0.44,1.205-0.81,2.014-0.81H50.559z M50.885,11.995c0-0.89-0.178-1.229-0.8-1.229h-0.158c-0.553,0-0.997,0.2-1.55,0.609
			v2.598c0.622,0.4,0.948,0.49,1.511,0.49h0.177c0.622,0,0.82-0.359,0.82-1.279V11.995z"/>
		<path fill="#FFFFFF" d="M52.91,11.235c0-0.919,0.652-1.349,1.955-1.349h0.178c0.504,0,1.432,0.1,2.054,0.379v1.2h-0.839
			l-0.079-0.67c-0.355-0.16-0.78-0.2-1.185-0.2c-0.78,0-1.155,0.19-1.155,0.66v0.069c0,0.53,0.316,0.53,1.708,0.8
			c1.253,0.25,1.678,0.54,1.678,1.338v0.262c0,1.119-0.642,1.578-1.905,1.578h-0.385c-0.513,0-1.56-0.061-2.024-0.58v-1.139h0.8
			l0.049,0.559c0.217,0.352,0.849,0.42,1.155,0.42h0.326c0.671,0,1.017-0.209,1.017-0.799v-0.141c0-0.488-0.306-0.578-1.629-0.829
			c-1.382-0.26-1.718-0.57-1.718-1.34V11.235z"/>
		<path fill="#FFFFFF" d="M62.192,10.486c0.73-0.43,1.105-0.6,1.925-0.6h0.178c0.858,0,1.432,0.529,1.432,1.658v1.909
			c0,1.289-0.632,1.82-1.629,1.82h-0.148c-0.938,0-1.639-0.051-2.784-0.131V8.997c-0.217-0.021-0.435-0.04-0.662-0.07V8.197h1.688
			V10.486z M64.699,12.014c0-0.909-0.207-1.309-0.819-1.309h-0.188c-0.553,0-0.878,0.08-1.5,0.47v3.239
			c0.562,0.068,0.918,0.08,1.431,0.08h0.158c0.622,0,0.918-0.34,0.918-1.23V12.014z"/>
		<path fill="#FFFFFF" d="M72.392,10.746c-0.296,0.04-0.543,0.06-0.779,0.08l-2.231,5.186c0.257,0,0.385,0.021,0.603,0.031v0.738
			h-2.587v-0.738c0.315-0.021,0.701-0.031,0.987-0.041l0.306-0.709l-1.905-4.488c-0.197-0.01-0.385-0.04-0.622-0.06v-0.74h2.518
			v0.74c-0.276,0.029-0.514,0.05-0.819,0.06l1.353,3.417h0.02l1.472-3.417c-0.208-0.01-0.405-0.03-0.652-0.06v-0.74h2.34V10.746z"/>
	</g>
</svg>
