<?xml version="1.0" encoding="utf-8"?>
<!-- Generator: Adobe Illustrator 16.0.0, SVG Export Plug-In . SVG Version: 6.00 Build 0)  -->
<!DOCTYPE svg PUBLIC "-//W3C//DTD SVG 1.1//EN" "http://www.w3.org/Graphics/SVG/1.1/DTD/svg11.dtd">
<svg version="1.1" id="Layer_1" xmlns="http://www.w3.org/2000/svg" xmlns:xlink="http://www.w3.org/1999/xlink" x="0px" y="0px"
	 width="340.156px" height="340.157px" viewBox="0 0 340.156 340.157" enable-background="new 0 0 340.156 340.157"
	 xml:space="preserve">
<g>
	<path fill="none" d="M275.748,81.048l17.608-17.608c-1.507-1.738-3.059-3.442-4.643-5.123l-17.556,17.556
		C272.73,77.559,274.26,79.285,275.748,81.048z"/>
	<path fill="none" d="M207.345,36.987l19.667-19.667c-2.401-0.896-4.819-1.733-7.253-2.512L199.517,35.05
		C202.155,35.623,204.766,36.266,207.345,36.987z"/>
	<path fill="none" d="M239.02,50.299l18.073-18.074c-2.005-1.267-4.033-2.495-6.094-3.673l-18.312,18.312
		C234.831,47.957,236.943,49.101,239.02,50.299z"/>
	<path fill="none" d="M252.586,59.225l17.708-17.708c-1.834-1.434-3.697-2.825-5.588-4.176l-17.843,17.843
		C248.805,56.484,250.715,57.83,252.586,59.225z"/>
	<path fill="none" d="M264.812,69.491l17.556-17.555c-1.674-1.592-3.38-3.141-5.11-4.656l-17.597,17.596
		C261.417,66.372,263.135,67.91,264.812,69.491z"/>
	<path fill="none" d="M40.072,216.99l-19.063,19.063c0.992,2.242,2.034,4.456,3.122,6.643l18.689-18.689
		C41.84,221.7,40.927,219.359,40.072,216.99z"/>
	<path fill="none" d="M224.007,42.818l18.689-18.69c-2.187-1.088-4.4-2.129-6.643-3.123L216.99,40.07
		C219.359,40.925,221.7,41.839,224.007,42.818z"/>
	<path fill="none" d="M32.245,179.828l-22.058,22.058c0.529,2.675,1.126,5.334,1.79,7.978L33.15,188.69
		C32.756,185.764,32.453,182.809,32.245,179.828z"/>
	<path fill="none" d="M35.052,199.516l-20.242,20.243c0.779,2.433,1.616,4.851,2.513,7.253l19.666-19.667
		C36.267,204.766,35.624,202.155,35.052,199.516z"/>
	<path fill="none" d="M32.512,157.069L7.52,182.061c0.215,2.974,0.512,5.934,0.887,8.877l23.525-23.524
		C31.998,163.932,32.194,160.483,32.512,157.069z"/>
	<path fill="none" d="M142.128,34.726l27.639-27.638c-3.383,0.006-6.749,0.124-10.1,0.333l-30.691,30.691
		C133.274,36.775,137.661,35.644,142.128,34.726z"/>
	<path fill="none" d="M38.115,128.974L7.423,159.665c-0.21,3.35-0.327,6.716-0.333,10.099l27.638-27.638
		C35.645,137.659,36.777,133.271,38.115,128.974z"/>
	<path fill="none" d="M167.416,31.931L190.94,8.406c-2.943-0.375-5.903-0.672-8.877-0.887l-24.992,24.992
		C160.485,32.192,163.934,31.997,167.416,31.931z"/>
	<path fill="none" d="M107.522,46.838l37.907-37.907c-4.055,0.614-8.078,1.383-12.067,2.302L11.236,133.36
		c-0.919,3.989-1.688,8.012-2.302,12.067l37.907-37.907C60.113,81.425,81.427,60.11,107.522,46.838z"/>
	<path fill="none" d="M188.691,33.149l21.173-21.173c-2.644-0.664-5.302-1.26-7.977-1.79L179.83,32.244
		C182.81,32.452,185.765,32.755,188.691,33.149z"/>
	<path fill="none" d="M307.545,184.208l25.15-25.15c-0.198-2.992-0.473-5.971-0.833-8.934l-23.653,23.654
		C308.116,177.29,307.894,180.768,307.545,184.208z"/>
	<path fill="none" d="M301.552,212.694c1.413-4.362,2.614-8.817,3.593-13.357c1.067-4.95,1.879-9.996,2.4-15.128
		c0.35-3.44,0.571-6.919,0.664-10.43c0.032-1.229,0.05-2.463,0.05-3.701c0-2.954-0.104-5.883-0.286-8.791
		c-0.188-3.001-0.463-5.979-0.84-8.924c-0.471-3.676-1.091-7.304-1.845-10.883c-0.558-2.651-1.194-5.273-1.901-7.865
		c-0.896-3.281-1.908-6.514-3.035-9.693c-0.843-2.38-1.746-4.731-2.714-7.05c-1.236-2.961-2.575-5.868-4.008-8.72
		c-1.081-2.153-2.214-4.276-3.403-6.363c-1.529-2.685-3.148-5.311-4.849-7.879c-1.291-1.951-2.63-3.868-4.016-5.748
		c-1.794-2.434-3.668-4.805-5.614-7.113c-1.487-1.764-3.018-3.489-4.59-5.175c-2.047-2.195-4.162-4.325-6.346-6.382
		c-1.678-1.581-3.396-3.119-5.151-4.615c-2.296-1.957-4.653-3.845-7.075-5.651c-1.871-1.395-3.78-2.741-5.723-4.042
		c-2.557-1.711-5.17-3.343-7.843-4.884c-2.077-1.198-4.189-2.342-6.333-3.434c-2.839-1.445-5.732-2.796-8.681-4.047
		c-2.307-0.979-4.647-1.893-7.017-2.748c-3.163-1.141-6.379-2.171-9.645-3.083c-2.579-0.721-5.19-1.364-7.828-1.937
		c-3.561-0.772-7.17-1.409-10.826-1.901c-2.926-0.394-5.881-0.697-8.861-0.905c-3.223-0.225-6.473-0.347-9.752-0.347
		c-0.89,0-1.776,0.017-2.662,0.034c-3.481,0.066-6.931,0.261-10.345,0.58c-5.065,0.473-10.052,1.211-14.943,2.215
		c-4.466,0.917-8.854,2.049-13.152,3.386c-7.441,2.315-14.61,5.246-21.454,8.726C81.427,60.11,60.113,81.425,46.841,107.52
		c-3.48,6.843-6.411,14.012-8.726,21.454c-1.337,4.297-2.469,8.686-3.387,13.152c-1.004,4.891-1.743,9.879-2.215,14.943
		c-0.319,3.414-0.515,6.863-0.581,10.345c-0.017,0.887-0.034,1.774-0.034,2.665c0,3.279,0.123,6.528,0.347,9.75
		c0.208,2.981,0.511,5.937,0.905,8.862c0.492,3.656,1.129,7.267,1.901,10.826c0.572,2.639,1.216,5.25,1.937,7.829
		c0.913,3.266,1.942,6.481,3.083,9.645c0.855,2.369,1.769,4.71,2.748,7.017c1.25,2.948,2.602,5.842,4.047,8.681
		c1.091,2.144,2.235,4.255,3.434,6.332c1.542,2.673,3.173,5.287,4.884,7.843c1.301,1.943,2.646,3.853,4.042,5.724
		c1.806,2.423,3.694,4.779,5.652,7.076c1.496,1.755,3.033,3.473,4.614,5.15c2.058,2.184,4.187,4.299,6.382,6.346
		c1.686,1.572,3.411,3.103,5.175,4.59c2.308,1.946,4.679,3.82,7.113,5.614c1.88,1.387,3.797,2.725,5.748,4.017
		c2.568,1.7,5.194,3.319,7.879,4.849c2.087,1.189,4.209,2.322,6.363,3.403c2.853,1.433,5.759,2.771,8.72,4.008
		c2.318,0.968,4.669,1.871,7.049,2.714c3.179,1.127,6.411,2.14,9.692,3.035c2.593,0.708,5.214,1.344,7.866,1.902
		c3.579,0.753,7.208,1.374,10.883,1.844c2.946,0.377,5.923,0.652,8.924,0.841c2.908,0.183,5.838,0.286,8.793,0.286
		c1.236,0,2.47-0.018,3.698-0.05c3.511-0.093,6.989-0.314,10.43-0.663c5.133-0.521,10.178-1.334,15.128-2.4
		c4.54-0.979,8.996-2.181,13.358-3.594c7.677-2.486,15.058-5.625,22.08-9.353c24.41-12.958,44.468-33.017,57.426-57.427
		C295.927,227.751,299.065,220.37,301.552,212.694z M204.638,254.858h-12.727h-9.768h-12.728h-9.764h-5.664h-7.063h-9.766h-12.728
		h-8.873v-0.892v-12.728v-9.766v-12.728v-9.765v-12.728v-9.765v-12.728v-9.766v-12.728v-9.765v-12.728v-9.765v-12.728v-9.767V85.299
		h11.217h9.767h12.728h9.765h12.728h1.675c2.763,0,5.368,0.087,7.827,0.262c4.106,0.292,7.793,0.833,11.1,1.628
		c2.687,0.646,5.121,1.461,7.314,2.452c2.991,1.352,5.543,3.025,7.686,5.042c1.693,1.594,3.129,3.403,4.336,5.428
		c0.689,1.157,1.307,2.381,1.848,3.683c0.666,1.634,1.239,3.452,1.727,5.471c0.596,2.473,1.061,5.249,1.4,8.364
		c0.389,3.553,0.612,7.556,0.687,12.041c0.019,1.115,0.031,2.248,0.031,3.424c0,2.262-0.038,4.395-0.113,6.423
		c-0.205,5.552-0.708,10.266-1.596,14.323c-2.577,11.77-8.401,18.054-19.664,23.44l1.612,4.376l3.426,9.301l2.63,7.137l3.426,9.302
		l2.629,7.135l3.427,9.301l2.629,7.138l3.427,9.302l2.628,7.136l2.745,7.45h-10.195H204.638z"/>
	<polygon fill="none" points="213.17,223.833 182.144,254.858 191.912,254.858 215.799,230.97 	"/>
	<path fill="none" d="M301.552,212.694l31.114-31.114c0.233-3.367,0.36-6.752,0.388-10.152l-27.909,27.909
		C304.166,203.876,302.965,208.332,301.552,212.694z"/>
	<path fill="none" d="M285.378,93.91l17.864-17.864c-1.343-1.898-2.733-3.764-4.158-5.605l-17.722,17.721
		C282.748,90.042,284.087,91.958,285.378,93.91z"/>
	<path fill="none" d="M307.972,161.287l22.159-22.159c-0.517-2.686-1.101-5.357-1.753-8.012l-21.246,21.247
		C307.51,155.309,307.784,158.286,307.972,161.287z"/>
	<polygon fill="none" points="219.225,240.272 204.638,254.858 214.403,254.858 221.853,247.408 	"/>
	<path fill="none" d="M217.393,133.095c0-1.176-0.013-2.31-0.031-3.424L115.559,231.473v9.766L217.28,139.518
		C217.355,137.489,217.393,135.357,217.393,133.095z"/>
	<polygon fill="none" points="201.058,190.958 137.159,254.858 146.926,254.858 203.688,198.095 	"/>
	<path fill="none" d="M293.63,108.151l18.34-18.339c-1.171-2.068-2.388-4.107-3.646-6.12l-18.097,18.096
		C291.416,103.875,292.549,105.998,293.63,108.151z"/>
	<path fill="none" d="M300.351,123.921l19.109-19.108c-0.984-2.251-2.016-4.475-3.095-6.67l-18.729,18.729
		C298.605,119.19,299.509,121.542,300.351,123.921z"/>
	<path fill="none" d="M305.288,141.479l20.31-20.31c-0.77-2.444-1.594-4.873-2.48-7.285l-19.73,19.73
		C304.094,136.207,304.73,138.829,305.288,141.479z"/>
	<path fill="none" d="M196.02,177.282c11.263-5.387,17.087-11.671,19.664-23.44L115.559,253.966v0.892h8.873l73.201-73.2
		L196.02,177.282z"/>
	<polygon fill="none" points="207.114,207.397 159.653,254.858 169.417,254.858 209.743,214.532 	"/>
	<path fill="none" d="M133.613,303.387l-19.73,19.729c2.413,0.888,4.842,1.713,7.286,2.482l20.31-20.31
		C138.827,304.731,136.205,304.095,133.613,303.387z"/>
	<path fill="none" d="M173.438,85.299h-1.675l-56.204,56.204v9.765l65.706-65.707C178.806,85.386,176.201,85.299,173.438,85.299z"/>
	<path fill="none" d="M192.365,87.189l-76.806,76.806v9.766l84.12-84.12C197.486,88.65,195.052,87.836,192.365,87.189z"/>
	<path fill="none" d="M88.161,281.362L70.44,299.083c1.842,1.426,3.708,2.816,5.606,4.159l17.863-17.863
		C91.958,284.086,90.041,282.749,88.161,281.362z"/>
	<path fill="none" d="M152.361,307.133l-21.246,21.247c2.654,0.652,5.325,1.236,8.011,1.753l22.159-22.159
		C158.284,307.786,155.307,307.51,152.361,307.133z"/>
	<path fill="none" d="M101.788,290.227l-18.095,18.096c2.012,1.259,4.051,2.477,6.12,3.646l18.338-18.339
		C105.998,292.549,103.875,291.417,101.788,290.227z"/>
	<path fill="none" d="M207.365,94.683l-91.806,91.806v9.765l96.142-96.142C210.494,98.086,209.058,96.277,207.365,94.683z"/>
	<path fill="none" d="M116.871,297.638l-18.728,18.728c2.195,1.08,4.418,2.111,6.668,3.095l19.108-19.108
		C121.54,299.509,119.189,298.606,116.871,297.638z"/>
	<polygon fill="none" points="149.271,85.299 115.559,119.01 115.559,128.775 159.036,85.299 	"/>
	<path fill="none" d="M243.702,315.529l71.826-71.827c1.684-3.327,3.263-6.718,4.725-10.174c0.998-2.36,1.934-4.738,2.816-7.132
		l-96.675,96.675c2.396-0.884,4.775-1.819,7.137-2.818C236.986,318.792,240.375,317.212,243.702,315.529z"/>
	<path fill="none" d="M173.776,308.21l-23.654,23.653c2.962,0.361,5.941,0.635,8.933,0.834l25.15-25.15
		C180.765,307.896,177.287,308.118,173.776,308.21z"/>
	<path fill="none" d="M106.625,19.903c-2.757,1.166-5.469,2.411-8.144,3.719L23.624,98.479c-1.308,2.676-2.554,5.39-3.72,8.147
		c-1.22,2.883-2.343,5.795-3.39,8.728l98.842-98.842C112.423,17.559,109.51,18.683,106.625,19.903z"/>
	<polygon fill="none" points="126.777,85.299 115.559,96.516 115.559,106.283 136.543,85.299 	"/>
	<path fill="none" d="M331.024,195.949l-38.826,38.825c-12.958,24.41-33.016,44.469-57.426,57.427l-38.826,38.826
		c4.099-0.653,8.165-1.464,12.194-2.43l120.455-120.455C329.56,204.113,330.371,200.046,331.024,195.949z"/>
	<path fill="none" d="M199.334,305.147l-27.909,27.909c3.4-0.027,6.786-0.154,10.153-0.388l31.114-31.115
		C208.33,302.966,203.874,304.167,199.334,305.147z"/>
	<path fill="none" d="M215.275,109.265l-99.716,99.716v9.765l101.116-101.116C216.336,114.514,215.871,111.738,215.275,109.265z"/>
	<path fill="none" d="M46.866,232.687L28.554,251c1.178,2.06,2.406,4.089,3.672,6.093L50.3,239.019
		C49.102,236.942,47.958,234.831,46.866,232.687z"/>
	<path fill="none" d="M64.878,259.662l-17.597,17.597c1.514,1.73,3.062,3.437,4.655,5.109l17.556-17.556
		C67.911,263.134,66.373,261.417,64.878,259.662z"/>
	<path fill="none" d="M75.874,271.158l-17.556,17.556c1.68,1.584,3.384,3.136,5.122,4.643l17.609-17.608
		C79.285,274.26,77.56,272.73,75.874,271.158z"/>
	<path fill="none" d="M55.184,246.862l-17.843,17.844c1.351,1.891,2.743,3.754,4.176,5.589l17.709-17.709
		C57.831,250.714,56.485,248.805,55.184,246.862z"/>
	<path d="M54.823,54.824C41.988,67.66,31.524,82.316,23.624,98.479l74.856-74.857C82.316,31.523,67.658,41.987,54.823,54.824z"/>
	<path d="M115.357,16.512l-98.842,98.842c-2.11,5.911-3.875,11.917-5.279,18.006L133.363,11.233
		C127.273,12.637,121.267,14.402,115.357,16.512z"/>
	<path d="M128.976,38.112l30.691-30.691c-4.783,0.3-9.532,0.797-14.237,1.51l-37.907,37.907
		C114.365,43.358,121.535,40.427,128.976,38.112z"/>
	<path d="M46.841,107.52L8.933,145.427c-0.713,4.705-1.21,9.454-1.51,14.237l30.691-30.691
		C40.429,121.532,43.36,114.363,46.841,107.52z"/>
	<path d="M34.728,142.125L7.09,169.764c0,0.105-0.004,0.209-0.004,0.314c0,4.017,0.147,8.012,0.435,11.983l24.992-24.992
		C32.985,152.004,33.723,147.017,34.728,142.125z"/>
	<path d="M157.071,32.511l24.992-24.992c-3.972-0.287-7.968-0.435-11.985-0.435c-0.104,0-0.208,0.003-0.312,0.004l-27.639,27.638
		C147.019,33.722,152.006,32.984,157.071,32.511z"/>
	<path d="M170.078,31.897c3.279,0,6.529,0.123,9.752,0.347l22.058-22.058c-3.623-0.717-7.272-1.312-10.947-1.78l-23.524,23.525
		C168.302,31.914,169.188,31.897,170.078,31.897z"/>
	<path d="M31.898,170.078c0-0.891,0.017-1.778,0.034-2.665L8.407,190.938c0.469,3.675,1.063,7.325,1.78,10.947l22.058-22.058
		C32.021,176.606,31.898,173.357,31.898,170.078z"/>
	<path d="M199.517,35.05l20.242-20.243c-3.272-1.048-6.57-1.997-9.896-2.832l-21.173,21.173
		C192.347,33.641,195.957,34.278,199.517,35.05z"/>
	<path d="M33.15,188.69l-21.173,21.173c0.835,3.326,1.784,6.624,2.832,9.896l20.242-20.243
		C34.279,195.957,33.642,192.346,33.15,188.69z"/>
	<path d="M36.988,207.345l-19.666,19.667c0.815,2.185,1.669,4.358,2.582,6.516c0.358,0.848,0.732,1.686,1.104,2.525l19.063-19.063
		C38.93,213.827,37.901,210.611,36.988,207.345z"/>
	<path d="M216.99,40.07l19.063-19.064c-0.839-0.371-1.676-0.745-2.522-1.103c-2.158-0.913-4.333-1.767-6.519-2.583l-19.667,19.667
		C210.611,37.899,213.827,38.929,216.99,40.07z"/>
	<path d="M42.819,224.006L24.13,242.696c1.399,2.813,2.869,5.585,4.424,8.304l18.312-18.312
		C45.421,229.848,44.07,226.955,42.819,224.006z"/>
	<path d="M232.687,46.865L251,28.552c-2.719-1.555-5.49-3.024-8.304-4.424l-18.689,18.69
		C226.955,44.068,229.848,45.42,232.687,46.865z"/>
	<path d="M50.3,239.019l-18.074,18.073c1.633,2.585,3.337,5.124,5.115,7.613l17.843-17.844
		C53.473,244.306,51.842,241.692,50.3,239.019z"/>
	<path d="M246.863,55.183l17.843-17.843c-2.489-1.778-5.028-3.481-7.612-5.115L239.02,50.299
		C241.693,51.84,244.306,53.472,246.863,55.183z"/>
	<path d="M59.226,252.585l-17.709,17.709c1.852,2.37,3.776,4.69,5.764,6.964l17.597-17.597
		C62.92,257.365,61.032,255.008,59.226,252.585z"/>
	<path d="M259.661,64.876l17.597-17.596c-2.273-1.988-4.594-3.912-6.964-5.764l-17.708,17.708
		C255.008,61.031,257.365,62.919,259.661,64.876z"/>
	<path d="M69.491,264.812l-17.556,17.556c0.949,0.998,1.911,1.986,2.887,2.963c1.149,1.148,2.317,2.271,3.495,3.383l17.556-17.556
		C73.678,269.111,71.55,266.996,69.491,264.812z"/>
	<path d="M271.158,75.873l17.556-17.556c-1.11-1.177-2.233-2.345-3.382-3.493c-0.978-0.977-1.966-1.939-2.964-2.889l-17.556,17.555
		C266.996,71.548,269.111,73.678,271.158,75.873z"/>
	<path d="M281.362,88.162l17.722-17.721c-1.844-2.38-3.748-4.717-5.728-7l-17.608,17.608
		C277.694,83.356,279.568,85.728,281.362,88.162z"/>
	<path d="M81.049,275.748L63.44,293.356c2.283,1.979,4.621,3.884,7,5.727l17.721-17.721
		C85.728,279.568,83.356,277.694,81.049,275.748z"/>
	<path d="M290.226,101.789l18.097-18.096c-1.623-2.595-3.312-5.147-5.081-7.647L285.378,93.91
		C287.078,96.478,288.697,99.104,290.226,101.789z"/>
	<path d="M93.909,285.378l-17.863,17.863c2.5,1.769,5.052,3.458,7.647,5.081l18.095-18.096
		C99.104,288.698,96.478,287.079,93.909,285.378z"/>
	<path d="M108.151,293.63l-18.338,18.339c2.729,1.544,5.507,3.009,8.331,4.396l18.728-18.728
		C113.91,296.402,111.004,295.063,108.151,293.63z"/>
	<path d="M297.637,116.872l18.729-18.729c-1.388-2.823-2.853-5.602-4.396-8.331l-18.34,18.339
		C295.062,111.003,296.401,113.911,297.637,116.872z"/>
	<path d="M303.386,133.614l19.73-19.73c-0.896-2.436-1.849-4.856-2.864-7.258c-0.257-0.608-0.528-1.208-0.792-1.813l-19.109,19.108
		C301.478,127.101,302.491,130.333,303.386,133.614z"/>
	<path d="M123.92,300.352l-19.108,19.108c0.604,0.264,1.204,0.535,1.812,0.792c2.402,1.017,4.823,1.969,7.259,2.864l19.73-19.729
		C130.331,302.492,127.099,301.479,123.92,300.352z"/>
	<path d="M141.478,305.29l-20.31,20.31c3.288,1.035,6.604,1.96,9.946,2.781l21.246-21.247
		C148.686,306.664,145.057,306.042,141.478,305.29z"/>
	<path d="M307.133,152.363l21.246-21.247c-0.821-3.341-1.746-6.658-2.781-9.947l-20.31,20.31
		C306.042,145.059,306.662,148.687,307.133,152.363z"/>
	<path d="M308.259,170.078c0,1.238-0.018,2.471-0.05,3.701l23.653-23.654c-0.449-3.691-1.03-7.357-1.73-10.997l-22.159,22.159
		C308.155,164.195,308.259,167.124,308.259,170.078z"/>
	<path d="M170.078,308.26c-2.955,0-5.885-0.104-8.793-0.286l-22.159,22.159c3.64,0.699,7.305,1.281,10.997,1.73l23.654-23.653
		C172.548,308.243,171.314,308.26,170.078,308.26z"/>
	<path d="M184.206,307.547l-25.15,25.15c3.655,0.242,7.329,0.375,11.022,0.375c0.45,0,0.897-0.013,1.347-0.017l27.909-27.909
		C194.384,306.213,189.339,307.026,184.206,307.547z"/>
	<path d="M305.144,199.336l27.909-27.909c0.004-0.45,0.017-0.898,0.017-1.349c0-3.693-0.132-7.366-0.375-11.02l-25.15,25.15
		C307.023,189.34,306.212,194.386,305.144,199.336z"/>
	<path d="M212.692,301.553l-31.114,31.115c4.829-0.335,9.62-0.885,14.368-1.642l38.826-38.826
		C227.75,295.928,220.369,299.067,212.692,301.553z"/>
	<path d="M292.198,234.774l38.826-38.825c0.757-4.749,1.307-9.54,1.642-14.369l-31.114,31.114
		C299.065,220.37,295.927,227.751,292.198,234.774z"/>
	<path d="M328.595,208.142L208.14,328.597c6.175-1.479,12.266-3.318,18.254-5.526l96.675-96.675
		C325.277,220.408,327.116,214.317,328.595,208.142z"/>
	<path d="M285.332,285.331c12.298-12.297,22.421-26.266,30.196-41.629l-71.826,71.827
		C259.065,307.752,273.034,297.628,285.332,285.331z"/>
	<polygon points="115.559,85.299 115.559,96.516 126.777,85.299 	"/>
	<polygon points="136.543,85.299 115.559,106.283 115.559,119.01 149.271,85.299 	"/>
	<polygon points="159.036,85.299 115.559,128.775 115.559,141.503 171.763,85.299 	"/>
	<path d="M181.265,85.561l-65.706,65.707v12.728l76.806-76.806C189.058,86.395,185.372,85.853,181.265,85.561z"/>
	<path d="M199.679,89.641l-84.12,84.12v12.728l91.806-91.806C205.222,92.667,202.671,90.993,199.679,89.641z"/>
	<path d="M213.549,103.794c-0.541-1.301-1.158-2.525-1.848-3.683l-96.142,96.142v12.728l99.716-99.716
		C214.788,107.246,214.215,105.428,213.549,103.794z"/>
	<path d="M216.676,117.629L115.559,218.746v12.728L217.362,129.67C217.288,125.185,217.064,121.182,216.676,117.629z"/>
	<path d="M217.28,139.518L115.559,241.239v12.728l100.125-100.125C216.572,149.784,217.075,145.07,217.28,139.518z"/>
	<polygon points="197.633,181.658 124.432,254.858 137.159,254.858 201.058,190.958 	"/>
	<polygon points="203.688,198.095 146.926,254.858 153.989,254.858 159.653,254.858 207.114,207.397 	"/>
	<polygon points="209.743,214.532 169.417,254.858 182.144,254.858 213.17,223.833 	"/>
	<polygon points="215.799,230.97 191.912,254.858 204.638,254.858 219.225,240.272 	"/>
	<polygon points="221.853,247.408 214.403,254.858 224.598,254.858 	"/>
</g>
</svg>
